Coordinates
version=1
nRows=60
nColumns=12
inDegrees=yes

Units are S.I. units (second, meters, Newtons, ...)
Angles are in degrees

endheader
time	SC_y	SC_z	SC_x	AC_y	AC_z	AC_x	GH_y	GH_z	GH_yy	EL_x	PS_y
       0.0              -23.99        -0.5166           59.6          54.54         -3.431          5.334          165.5          12.44          1.137          28.22          64.46
   0.04938              -23.99        -0.5148           59.6          54.54         -3.433          5.331          165.5          12.46          1.149          28.22          64.47
   0.09876              -23.99        -0.5129           59.6          54.54         -3.435          5.328          165.4          12.47          1.162          28.22          64.48
    0.1481               -24.0        -0.5109          59.61          54.54         -3.438          5.325          165.4          12.48          1.176          28.22           64.5
    0.1975               -24.0        -0.5088          59.61          54.54          -3.44          5.322          165.4          12.49          1.191          28.22          64.52
    0.2469              -24.01        -0.5065          59.61          54.54         -3.443          5.318          165.3          12.51          1.207          28.22          64.53
    0.2963              -24.01         -0.504          59.62          54.55         -3.446          5.314          165.3          12.52          1.224          28.22          64.55
    0.3457              -24.02        -0.5014          59.62          54.55         -3.449           5.31          165.2          12.54          1.242          28.22          64.57
     0.395              -24.02        -0.4986          59.63          54.55         -3.452          5.306          165.2          12.56          1.261          28.22          64.59
    0.4444              -24.03        -0.4957          59.63          54.56         -3.456          5.301          165.1          12.58          1.282          28.22          64.62
    0.4938              -24.04        -0.4924          59.64          54.56         -3.459          5.296          165.1           12.6          1.304          28.22          64.64
    0.5432              -24.05         -0.489          59.65          54.56         -3.464          5.291          165.0          12.62          1.328          28.22          64.67
    0.5926              -24.05        -0.4853          59.65          54.57         -3.468          5.285          164.9          12.64          1.354          28.22           64.7
    0.6419              -24.06        -0.4812          59.66          54.57         -3.473          5.279          164.9          12.67          1.382          28.22          64.73
    0.6913              -24.07        -0.4769          59.67          54.57         -3.478          5.272          164.8           12.7          1.412          28.22          64.76
    0.7407              -24.08        -0.4722          59.68          54.58         -3.483          5.264          164.7          12.73          1.444          28.22           64.8
    0.7901              -24.09         -0.467          59.69          54.58         -3.489          5.256          164.6          12.76           1.48          28.22          64.84
    0.8395               -24.1        -0.4614           59.7          54.59         -3.496          5.248          164.5          12.79          1.519          28.22          64.88
    0.8888              -24.12        -0.4553          59.71          54.59         -3.503          5.238          164.4          12.83          1.561          28.22          64.93
    0.9382              -24.13        -0.4486          59.72           54.6         -3.511          5.227          164.3          12.88          1.607          28.22          64.98
    0.9876              -24.15        -0.4413          59.73          54.61          -3.52          5.216          164.2          12.92          1.658          28.22          65.04
     1.037              -24.16        -0.4332          59.75          54.61         -3.529          5.203          164.0          12.97          1.714          28.22           65.1
     1.086              -24.18        -0.4243          59.76          54.62          -3.54          5.189          163.9          13.03          1.776          28.22          65.17
     1.136               -24.2        -0.4144          59.78          54.63         -3.551          5.174          163.7          13.09          1.844          28.22          65.25
     1.185              -24.23        -0.4034           59.8          54.64         -3.564          5.156          163.5          13.16           1.92          28.22          65.33
     1.235              -24.25        -0.3911          59.82          54.66         -3.578          5.137          163.3          13.24          2.005          28.22          65.43
     1.284              -24.28        -0.3774          59.85          54.67         -3.595          5.115          163.0          13.33            2.1          28.22          65.53
     1.333              -24.31        -0.3619          59.88          54.68         -3.613          5.091          162.7          13.43          2.207          28.22          65.65
     1.383              -24.35        -0.3445          59.91           54.7         -3.633          5.064          162.4          13.54          2.328          28.22          65.79
     1.432              -24.39        -0.3246          59.94          54.72         -3.657          5.033          162.1          13.66          2.466          28.22          65.94
     1.481              -24.44         -0.302          59.98          54.74         -3.683          4.997          161.7          13.81          2.622          28.22          66.12
     1.531              -24.49         -0.276          60.03          54.77         -3.714          4.956          161.2          13.97          2.802          28.22          66.32
      1.58              -24.56         -0.246          60.08          54.79         -3.749          4.909          160.7          14.16           3.01          28.22          66.55
      1.63              -24.63        -0.2112          60.15          54.83          -3.79          4.854          160.1          14.39          3.251          28.22          66.82
     1.679              -24.72        -0.1704          60.22          54.87         -3.838           4.79          159.3          14.64          3.534          28.22          67.13
     1.728              -24.82        -0.1223          60.31          54.91         -3.894          4.715          158.5          14.95          3.866          28.22           67.5
     1.778              -24.94       -0.06521          60.41          54.97         -3.961          4.625          157.5          15.31          4.262          28.22          67.95
     1.827              -25.08       0.003266          60.54          55.03         -4.042          4.517          156.2          15.75          4.736          28.22          68.48
     1.876              -25.26         0.0861          60.68          55.11         -4.139          4.387          154.8          16.27          5.309          28.22          69.12
     1.926              -25.47         0.1873          60.87          55.21         -4.258          4.228          153.0          16.92           6.01          28.22           69.9
     1.975              -25.74         0.3122          61.09          55.33         -4.405          4.032          150.7          17.71          6.875          28.22          70.86
     2.025              -26.06          0.468          61.37          55.48         -4.588          3.787          148.0           18.7          7.953          28.23          72.07
     2.074              -26.48         0.6642          61.73          55.66         -4.818          3.479          144.5          19.95          9.311          28.23          73.59
     2.123               -27.0         0.9136          62.18           55.9         -5.111          3.087          140.0          21.53          11.04          28.23          75.52
     2.173              -27.68          1.233          62.76          56.21         -5.486          2.585          134.3          23.56          13.25          28.24          77.98
     2.222              -28.54          1.642           63.5           56.6         -5.968          1.941          127.0          26.17          16.08          28.24          81.15
     2.271              -29.65          2.166          64.44           57.1         -6.583          1.119          117.7          29.49          19.71          28.25           85.2
     2.321              -31.03          2.824          65.63          57.73         -7.356        0.08495          106.0          33.67          24.26          28.25          90.29
      2.37              -32.72          3.626          67.08          58.49         -8.298         -1.175           91.7          38.77          29.81          28.26          96.49
      2.42              -34.69          4.555          68.76          59.38          -9.39         -2.636          75.14          44.68          36.25          28.27          103.7
     2.469              -36.81          5.561          70.58          60.34         -10.57         -4.217          57.21          51.07          43.22          28.28          111.5
     2.518              -38.93          6.568           72.4           61.3         -11.75         -5.799          39.27          57.47          50.18           28.3          119.2
     2.568              -40.89          7.497          74.08          62.19         -12.85         -7.259          22.71          63.37          56.62          28.31          126.4
     2.617              -42.58          8.299          75.53          62.95         -13.79         -8.519          8.425          68.47          62.17          28.32          132.6
     2.667              -43.97          8.957          76.72          63.58         -14.56         -9.553         -3.299          72.65          66.73          28.32          137.7
     2.716              -45.08           9.48          77.66          64.08         -15.18         -10.38         -12.62          75.98          70.35          28.33          141.8
     2.765              -45.94           9.89           78.4          64.47         -15.66         -11.02         -19.92          78.58          73.19          28.33          144.9
     2.815              -46.61          10.21          78.98          64.78         -16.03         -11.52         -25.61          80.61           75.4          28.34          147.4
     2.864              -47.14          10.46          79.43          65.02         -16.33         -11.91         -30.06           82.2          77.12          28.34          149.3
     2.913              -47.55          10.65          79.78           65.2         -16.56         -12.22         -33.55          83.44          78.48          28.34          150.8
